<?xml version="1.0" encoding="UTF-8"?>
<svg xmlns="http://www.w3.org/2000/svg" viewBox="0 0 70.89 76.56" width="100px" height="100px">
    <g transform="matrix(1 0 0 1 35 40)" id="a5df035d-2c5f-47c9-8232-82039555bbdd">
        <path style="fill: #8B8AFF; fill-rule: nonzero; opacity: 1;" transform=" translate(-50, -50)" d="M 19.11 13.441 L 66.53 13.441 L 66.53 28.966 L 80.888 28.966 L 80.888 86.559 L 19.11 86.559 L 19.11 13.441 z M 69.711 13.494 L 80.254 26 L 69.711 26 L 69.711 13.494 M 76.79111111111109 64.17925925925925 C 76.35111111111111 63.3 75.28148148148148 62.9237037037037 74.40222222222222 63.36222222222222 C 68.68074074074073 66.19037037037037 65.31851851851852 66.81851851851852 63.30888888888889 66.19037037037037 C 61.737037037037034 65.6874074074074 60.98296296296296 64.11555555555555 60.44888888888888 62.229629629629635 C 62.93037037037036 58.803703703703704 64.40666666666667 54.59185185185186 64.40666666666667 50.0362962962963 C 64.40666666666667 38.628888888888895 55.169629629629625 29.389629629629635 43.75999999999999 29.389629629629635 C 32.352592592592586 29.389629629629635 23.11333333333333 38.628888888888895 23.11333333333333 50.0362962962963 C 23.11333333333333 61.443703703703704 32.352592592592586 70.68370370370371 43.75999999999999 70.68370370370371 C 49.166666666666664 70.68370370370371 54.069629629629624 68.64148148148148 57.74666666666666 65.24888888888889 C 58.595555555555556 67.25777777777778 59.91407407407407 68.86296296296297 62.27185185185184 69.5837037037037 C 65.06666666666666 70.46518518518519 69.3111111111111 69.83555555555556 75.97185185185185 66.53777777777779 C 76.85333333333332 66.12814814814814 77.19777777777777 65.05777777777777 76.79111111111109 64.17925925925925 z M 43.760000000000005 32.406666666666666 C 47.06 32.406666666666666 49.73185185185185 35.07851851851852 49.73185185185185 38.37851851851852 C 49.73185185185185 41.64592592592592 47.06 44.318518518518516 43.760000000000005 44.318518518518516 C 40.46 44.318518518518516 37.78962962962963 41.64666666666666 37.78962962962963 38.37851851851852 C 37.79037037037037 35.07851851851852 40.459999999999994 32.406666666666666 43.760000000000005 32.406666666666666 z M 32.41555555555556 55.66296296296296 C 29.145925925925923 55.66296296296296 26.475555555555555 52.99111111111111 26.475555555555555 49.69111111111111 C 26.475555555555555 46.39185185185185 29.145185185185184 43.72 32.44592592592593 43.72 C 35.715555555555554 43.72 38.385925925925925 46.39185185185185 38.385925925925925 49.69111111111111 C 38.385925925925925 52.99037037037037 35.71629629629629 55.66296296296296 32.41555555555556 55.66296296296296 z M 43.760000000000005 67.00666666666666 C 40.46 67.00666666666666 37.78962962962963 64.33703703703704 37.78962962962963 61.03629629629629 C 37.78962962962963 57.737037037037034 40.459259259259255 55.06444444444445 43.760000000000005 55.06444444444445 C 47.06074074074074 55.06444444444445 49.73185185185185 57.736296296296295 49.73185185185185 61.03629629629629 C 49.73185185185185 64.33703703703704 47.06 67.00666666666666 43.760000000000005 67.00666666666666 z M 55.1074074074074 55.66296296296296 C 51.8074074074074 55.66296296296296 49.13481481481481 52.99111111111111 49.13481481481481 49.69111111111111 C 49.13481481481481 46.39185185185185 51.8074074074074 43.72 55.1074074074074 43.72 C 58.40518518518518 43.72 61.077777777777776 46.39185185185185 61.077777777777776 49.69111111111111 C 61.07703703703703 52.99037037037037 58.40518518518518 55.66296296296296 55.1074074074074 55.66296296296296 z" stroke-linecap="round" />
    </g>
</svg>